<mxfile host="app.diagrams.net" modified="2021-12-23T09:41:53.395Z" agent="5.0 (Windows NT 10.0; Win64; x64) AppleWebKit/537.36 (KHTML, like Gecko) Chrome/93.0.4577.82 Safari/537.36" etag="kWvT3INoBxf4zqIuEkTN" version="15.7.0" type="github">
  <diagram name="Page-1" id="97916047-d0de-89f5-080d-49f4d83e522f">
    <mxGraphModel dx="2031" dy="1009" grid="1" gridSize="10" guides="1" tooltips="1" connect="1" arrows="1" fold="1" page="1" pageScale="1.5" pageWidth="1169" pageHeight="827" background="none" math="0" shadow="0">
      <root>
        <mxCell id="0" />
        <mxCell id="1" parent="0" />
        <mxCell id="4Q2F3BAIOPjF95gCmgY9-70" value="" style="group" vertex="1" connectable="0" parent="1">
          <mxGeometry x="730" y="200" width="200" height="420" as="geometry" />
        </mxCell>
        <mxCell id="4Q2F3BAIOPjF95gCmgY9-71" value="" style="rounded=0;whiteSpace=wrap;html=1;" vertex="1" parent="4Q2F3BAIOPjF95gCmgY9-70">
          <mxGeometry width="200" height="420" as="geometry" />
        </mxCell>
        <mxCell id="4Q2F3BAIOPjF95gCmgY9-72" value="WxStack" style="rounded=1;fillColor=#10739E;strokeColor=none;shadow=1;gradientColor=none;fontStyle=1;fontColor=#FFFFFF;fontSize=14;" vertex="1" parent="4Q2F3BAIOPjF95gCmgY9-70">
          <mxGeometry x="15" y="180" width="170" height="60" as="geometry" />
        </mxCell>
        <mxCell id="4Q2F3BAIOPjF95gCmgY9-73" value="CcStack" style="rounded=1;fillColor=#10739E;strokeColor=none;shadow=1;gradientColor=none;fontStyle=1;fontColor=#FFFFFF;fontSize=14;" vertex="1" parent="4Q2F3BAIOPjF95gCmgY9-70">
          <mxGeometry x="15" y="270" width="170" height="60" as="geometry" />
        </mxCell>
        <mxCell id="4Q2F3BAIOPjF95gCmgY9-74" value="CcStack" style="rounded=1;fillColor=#10739E;strokeColor=none;shadow=1;gradientColor=none;fontStyle=1;fontColor=#FFFFFF;fontSize=14;" vertex="1" parent="4Q2F3BAIOPjF95gCmgY9-70">
          <mxGeometry x="20" y="80" width="170" height="60" as="geometry" />
        </mxCell>
        <mxCell id="4Q2F3BAIOPjF95gCmgY9-75" value="" style="group" vertex="1" connectable="0" parent="1">
          <mxGeometry x="290" y="190" width="200" height="420" as="geometry" />
        </mxCell>
        <mxCell id="4Q2F3BAIOPjF95gCmgY9-60" value="" style="rounded=0;whiteSpace=wrap;html=1;" vertex="1" parent="4Q2F3BAIOPjF95gCmgY9-75">
          <mxGeometry width="200" height="420" as="geometry" />
        </mxCell>
        <mxCell id="2" value="WxStack" style="rounded=1;fillColor=#10739E;strokeColor=none;shadow=1;gradientColor=none;fontStyle=1;fontColor=#FFFFFF;fontSize=14;" parent="4Q2F3BAIOPjF95gCmgY9-75" vertex="1">
          <mxGeometry x="15" y="130" width="170" height="60" as="geometry" />
        </mxCell>
        <mxCell id="4Q2F3BAIOPjF95gCmgY9-61" value="CcStack" style="rounded=1;fillColor=#10739E;strokeColor=none;shadow=1;gradientColor=none;fontStyle=1;fontColor=#FFFFFF;fontSize=14;" vertex="1" parent="4Q2F3BAIOPjF95gCmgY9-75">
          <mxGeometry x="15" y="240" width="170" height="60" as="geometry" />
        </mxCell>
      </root>
    </mxGraphModel>
  </diagram>
</mxfile>
